<svg width="24" height="24" viewBox="0 0 24 24" fill="currentColor" xmlns="http://www.w3.org/2000/svg">
<path d="M3.44444 24C2.77222 24 2.19676 23.765 1.71806 23.295C1.23935 22.825 1 22.26 1 21.6V4.8C1 4.14 1.23935 3.575 1.71806 3.105C2.19676 2.635 2.77222 2.4 3.44444 2.4H4.66667V1.2C4.66667 0.86 4.7838 0.575 5.01806 0.345C5.25231 0.115 5.54259 0 5.88889 0C6.23519 0 6.52546 0.115 6.75972 0.345C6.99398 0.575 7.11111 0.86 7.11111 1.2V2.4H16.8889V1.2C16.8889 0.86 17.006 0.575 17.2403 0.345C17.4745 0.115 17.7648 0 18.1111 0C18.4574 0 18.7477 0.115 18.9819 0.345C19.2162 0.575 19.3333 0.86 19.3333 1.2V2.4H20.5556C21.2278 2.4 21.8032 2.635 22.2819 3.105C22.7606 3.575 23 4.14 23 4.8V21.6C23 22.26 22.7606 22.825 22.2819 23.295C21.8032 23.765 21.2278 24 20.5556 24H3.44444ZM3.44444 21.6H20.5556V9.6H3.44444V21.6ZM3.44444 7.2H20.5556V4.8H3.44444V7.2ZM12 14.4C11.6537 14.4 11.3634 14.285 11.1292 14.055C10.8949 13.825 10.7778 13.54 10.7778 13.2C10.7778 12.86 10.8949 12.575 11.1292 12.345C11.3634 12.115 11.6537 12 12 12C12.3463 12 12.6366 12.115 12.8708 12.345C13.1051 12.575 13.2222 12.86 13.2222 13.2C13.2222 13.54 13.1051 13.825 12.8708 14.055C12.6366 14.285 12.3463 14.4 12 14.4ZM7.11111 14.4C6.76481 14.4 6.47454 14.285 6.24028 14.055C6.00602 13.825 5.88889 13.54 5.88889 13.2C5.88889 12.86 6.00602 12.575 6.24028 12.345C6.47454 12.115 6.76481 12 7.11111 12C7.45741 12 7.74769 12.115 7.98194 12.345C8.2162 12.575 8.33333 12.86 8.33333 13.2C8.33333 13.54 8.2162 13.825 7.98194 14.055C7.74769 14.285 7.45741 14.4 7.11111 14.4ZM16.8889 14.4C16.5426 14.4 16.2523 14.285 16.0181 14.055C15.7838 13.825 15.6667 13.54 15.6667 13.2C15.6667 12.86 15.7838 12.575 16.0181 12.345C16.2523 12.115 16.5426 12 16.8889 12C17.2352 12 17.5255 12.115 17.7597 12.345C17.994 12.575 18.1111 12.86 18.1111 13.2C18.1111 13.54 17.994 13.825 17.7597 14.055C17.5255 14.285 17.2352 14.4 16.8889 14.4ZM12 19.2C11.6537 19.2 11.3634 19.085 11.1292 18.855C10.8949 18.625 10.7778 18.34 10.7778 18C10.7778 17.66 10.8949 17.375 11.1292 17.145C11.3634 16.915 11.6537 16.8 12 16.8C12.3463 16.8 12.6366 16.915 12.8708 17.145C13.1051 17.375 13.2222 17.66 13.2222 18C13.2222 18.34 13.1051 18.625 12.8708 18.855C12.6366 19.085 12.3463 19.2 12 19.2ZM7.11111 19.2C6.76481 19.2 6.47454 19.085 6.24028 18.855C6.00602 18.625 5.88889 18.34 5.88889 18C5.88889 17.66 6.00602 17.375 6.24028 17.145C6.47454 16.915 6.76481 16.8 7.11111 16.8C7.45741 16.8 7.74769 16.915 7.98194 17.145C8.2162 17.375 8.33333 17.66 8.33333 18C8.33333 18.34 8.2162 18.625 7.98194 18.855C7.74769 19.085 7.45741 19.2 7.11111 19.2ZM16.8889 19.2C16.5426 19.2 16.2523 19.085 16.0181 18.855C15.7838 18.625 15.6667 18.34 15.6667 18C15.6667 17.66 15.7838 17.375 16.0181 17.145C16.2523 16.915 16.5426 16.8 16.8889 16.8C17.2352 16.8 17.5255 16.915 17.7597 17.145C17.994 17.375 18.1111 17.66 18.1111 18C18.1111 18.34 17.994 18.625 17.7597 18.855C17.5255 19.085 17.2352 19.2 16.8889 19.2Z" fill="currentColor"/>
</svg>
