<svg width="24" height="24" viewBox="0 0 24 24" fill="currentColor" xmlns="http://www.w3.org/2000/svg">
<path d="M6 18C4.34 18 2.925 17.415 1.755 16.245C0.585 15.075 0 13.66 0 12C0 10.34 0.585 8.925 1.755 7.755C2.925 6.585 4.34 6 6 6H9.6C9.94 6 10.225 6.115 10.455 6.345C10.685 6.575 10.8 6.86 10.8 7.2C10.8 7.54 10.685 7.825 10.455 8.055C10.225 8.285 9.94 8.4 9.6 8.4H6C5 8.4 4.15 8.75 3.45 9.45C2.75 10.15 2.4 11 2.4 12C2.4 13 2.75 13.85 3.45 14.55C4.15 15.25 5 15.6 6 15.6H9.6C9.94 15.6 10.225 15.715 10.455 15.945C10.685 16.175 10.8 16.46 10.8 16.8C10.8 17.14 10.685 17.425 10.455 17.655C10.225 17.885 9.94 18 9.6 18H6ZM8.4 13.2C8.06 13.2 7.775 13.085 7.545 12.855C7.315 12.625 7.2 12.34 7.2 12C7.2 11.66 7.315 11.375 7.545 11.145C7.775 10.915 8.06 10.8 8.4 10.8H15.6C15.94 10.8 16.225 10.915 16.455 11.145C16.685 11.375 16.8 11.66 16.8 12C16.8 12.34 16.685 12.625 16.455 12.855C16.225 13.085 15.94 13.2 15.6 13.2H8.4ZM14.4 18C14.06 18 13.775 17.885 13.545 17.655C13.315 17.425 13.2 17.14 13.2 16.8C13.2 16.46 13.315 16.175 13.545 15.945C13.775 15.715 14.06 15.6 14.4 15.6H18C19 15.6 19.85 15.25 20.55 14.55C21.25 13.85 21.6 13 21.6 12C21.6 11 21.25 10.15 20.55 9.45C19.85 8.75 19 8.4 18 8.4H14.4C14.06 8.4 13.775 8.285 13.545 8.055C13.315 7.825 13.2 7.54 13.2 7.2C13.2 6.86 13.315 6.575 13.545 6.345C13.775 6.115 14.06 6 14.4 6H18C19.66 6 21.075 6.585 22.245 7.755C23.415 8.925 24 10.34 24 12C24 13.66 23.415 15.075 22.245 16.245C21.075 17.415 19.66 18 18 18H14.4Z" fill="currentColor"/>
</svg>
