<svg width="24" height="24" viewBox="0 0 24 24" fill="currentColor" xmlns="http://www.w3.org/2000/svg">
<path d="M2.4 23C1.74 23 1.175 22.7629 0.705 22.2888C0.235 21.8147 0 21.2447 0 20.5789V7.26316C0 6.59737 0.235 6.02741 0.705 5.55329C1.175 5.07917 1.74 4.84211 2.4 4.84211H7.2V2.42105C7.2 1.75526 7.435 1.18531 7.905 0.711184C8.375 0.237061 8.94 0 9.6 0H14.4C15.06 0 15.625 0.237061 16.095 0.711184C16.565 1.18531 16.8 1.75526 16.8 2.42105V4.84211H21.6C22.26 4.84211 22.825 5.07917 23.295 5.55329C23.765 6.02741 24 6.59737 24 7.26316V20.5789C24 21.2447 23.765 21.8147 23.295 22.2888C22.825 22.7629 22.26 23 21.6 23H2.4ZM2.4 20.5789H21.6V7.26316H2.4V20.5789ZM9.6 4.84211H14.4V2.42105H9.6V4.84211Z" fill="currentColor"/>
</svg>
